<svg width="40" height="40" viewBox="0 0 40 40" fill="none" xmlns="http://www.w3.org/2000/svg">
<path d="M22.8569 25.0817C24.7514 24.857 26.5783 24.4116 28.3111 23.7719C26.8743 22.177 25.9998 20.0656 25.9998 17.75V17.0492C25.9999 17.0328 26 17.0164 26 17C26 13.6863 23.3137 11 20 11C16.6863 11 14 13.6863 14 17L13.9998 17.75C13.9998 20.0656 13.1253 22.177 11.6885 23.7719C13.4214 24.4116 15.2484 24.857 17.1431 25.0818M22.8569 25.0817C21.92 25.1928 20.9666 25.25 19.9998 25.25C19.0332 25.25 18.0799 25.1929 17.1431 25.0818M22.8569 25.0817C22.9498 25.3711 23 25.6797 23 26C23 27.6569 21.6569 29 20 29C18.3431 29 17 27.6569 17 26C17 25.6797 17.0502 25.3712 17.1431 25.0818" stroke="#9CA3AF" stroke-width="1.5" stroke-linecap="round" stroke-linejoin="round"/>
<rect x="22" y="8" width="8" height="8" rx="4" fill="#EF4444"/>
</svg>
